
<svg xmlns:dc="http://purl.org/dc/elements/1.1/" xmlns:cc="http://creativecommons.org/ns#" xmlns:rdf="http://www.w3.org/1999/02/22-rdf-syntax-ns#" xmlns:svg="http://www.w3.org/2000/svg" xmlns="http://www.w3.org/2000/svg" xmlns:inkscape="http://www.inkscape.org/namespaces/inkscape" version="1.1" width="684" height="513" id="svg2" xml:space="preserve"><metadata id="metadata8"><rdf:RDF><cc:Work rdf:about=""><dc:format>image/svg+xml</dc:format><dc:type rdf:resource="http://purl.org/dc/dcmitype/StillImage"/></cc:Work></rdf:RDF></metadata><defs id="defs6"><clipPath id="clipPath18"><path d="M 0 4105 0 0 l 5477 0 0 4105 -5477 0 z" inkscape:connector-curvature="0" id="path20"/></clipPath></defs><g transform="matrix(1.25,0,0,-1.25,0,513.25)" id="g10"><g transform="scale(0.1,0.1)" id="g12"><g id="g14"><g clip-path="url(#clipPath18)" id="g16"><path d="m 3873 1003 c -17 12 -14 52 42 176 22 48 73 131 162 209 10 -32 16 -63 16 -92 -1 -192 -138 -264 -221 -294 z M 3141 836 c -23 -12 -44 -19 -54 -13 -7 4 9 20 9 20 0 0 118 127 165 186 27 33 58 74 93 118 0 -4 0 -8 0 -13 0 -153 -148 -256 -214 -298 z m -949 453 c -54 -133 -169 -476 -240 -458 -60 15 -96 276 -12 532 42 129 133 283 187 343 86 96 180 127 204 88 29 -49 -104 -422 -139 -506 z M 1042 508 C 884 335 663 270 569 325 467 384 507 638 701 820 c 118 111 270 213 371 277 23 13 56 34 97 58 6 3 10 6 10 6 l 0 0 c 7 4 16 9 24 14 70 -260 2 -488 -163 -669 z m 3672 1237 c -191 -1 -357 -46 -496 -115 -50 101 -102 190 -110 257 -10 77 -21 123 -9 216 12 92 65 223 64 232 0 9 -11 56 -122 57 -110 0 -204 -21 -216 -50 -11 -29 -32 -94 -45 -163 -19 -100 -220 -457 -334 -644 -37 72 -69 137 -75 188 -10 77 -21 123 -9 216 12 92 65 223 64 232 0 9 -11 56 -122 57 -110 0 -204 -21 -216 -50 -11 -29 -22 -97 -45 -163 -22 -65 -289 -661 -360 -816 -35 -78 -66 -141 -88 -185 0 0 0 0 0 0 0 0 -1 -2 -3 -7 -18 -36 -29 -57 -29 -57 0 0 0 0 0 0 -14 -26 -30 -52 -38 -52 -5 0 -16 71 2 170 39 206 135 528 134 540 0 5 17 61 -62 91 -77 28 -105 -19 -112 -19 -6 0 -12 -16 -12 -16 0 0 86 362 -165 362 -157 0 -376 -172 -484 -329 -67 -37 -213 -116 -367 -201 -59 -32 -119 -65 -177 -97 -3 4 -7 8 -11 12 -306 326 -871 557 -847 996 8 159 64 579 1087 1089 838 417 1508 302 1624 48 C 3291 3182 2766 2506 1896 2408 c -331 -37 -506 91 -549 139 -45 50 -52 52 -69 43 -27 -15 -10 -59 0 -86 25 -67 132 -187 314 -247 159 -52 549 -81 1020 100 527 203 939 771 818 1245 -122 482 -922 640 -1679 372 C 1299 3815 812 3564 461 3236 44 2846 -22 2507 5 2365 102 1861 797 1533 1075 1289 c -13 -7 -26 -14 -38 -21 C 897 1199 368 922 235 630 85 297 259 59 374 27 732 -71 1098 107 1295 400 c 196 293 172 676 82 850 -1 2 -2 4 -3 6 36 21 72 42 109 64 70 41 140 80 201 113 -33 -92 -58 -203 -71 -364 -15 -188 62 -432 163 -528 44 -42 98 -43 132 -43 117 0 171 97 230 213 72 141 136 307 136 307 0 0 -80 -446 139 -446 80 0 160 103 196 156 0 0 0 0 0 0 0 0 2 3 6 10 8 12 13 20 13 20 0 0 0 0 0 2 32 55 103 183 210 393 138 271 271 612 271 612 0 0 12 -83 52 -220 23 -80 74 -170 114 -256 -32 -44 -51 -70 -51 -70 0 0 0 0 0 -1 -25 -34 -54 -70 -84 -106 -109 -130 -239 -278 -256 -321 -20 -50 -15 -87 24 -117 28 -21 80 -25 134 -21 98 6 167 30 201 45 53 18 115 48 173 91 107 78 171 191 165 340 -3 82 -29 163 -62 240 9 13 19 28 29 42 168 246 300 518 300 518 0 0 12 -83 52 -220 20 -69 60 -145 97 -220 -158 -129 -257 -279 -291 -377 -63 -181 -13 -264 79 -283 42 -8 101 10 146 29 55 18 122 49 184 95 107 78 210 189 204 338 -2 67 -21 135 -46 200 134 56 309 87 531 61 476 -55 569 -353 552 -477 -17 -124 -117 -192 -151 -213 -33 -20 -43 -27 -40 -43 4 -22 19 -21 47 -16 39 6 250 101 259 331 11 291 -268 612 -763 609" inkscape:connector-curvature="0" id="path22" style="fill:rgb(85, 164, 242);fill-opacity:1;fill-rule:nonzero;stroke:none"/></g></g></g></g></svg>